HIERARCHY
ROOT Hips
{
 OFFSET 0.000000 0.000000 0.000000
 CHANNELS 6 Xposition Yposition Zposition Yrotation Xrotation Zrotation
 JOINT Chest
 {
  OFFSET 0.000000 9.588913 -0.003946
  CHANNELS 3 Yrotation Xrotation Zrotation
  JOINT Chest2
  {
   OFFSET 0.000000 9.541882 0.008053
   CHANNELS 3 Yrotation Xrotation Zrotation
   JOINT Chest3
   {
    OFFSET 0.000000 9.501360 0.000000
    CHANNELS 3 Yrotation Xrotation Zrotation
    JOINT Chest4
    {
     OFFSET 0.000000 9.491660 0.000000
     CHANNELS 3 Yrotation Xrotation Zrotation
     JOINT Neck
     {
      OFFSET 0.000000 14.331917 0.000000
      CHANNELS 3 Yrotation Xrotation Zrotation
      JOINT Head
      {
       OFFSET 0.000000 8.884799 0.017034
       CHANNELS 3 Yrotation Xrotation Zrotation
       End Site
       {
        OFFSET 0.000000 16.896195 0.008993
       }
      }
     }
     JOINT RightCollar
     {
      OFFSET -2.923010 9.499495 0.000000
      CHANNELS 3 Yrotation Xrotation Zrotation
      JOINT RightShoulder
      {
       OFFSET -13.795216 0.000000 0.000000
       CHANNELS 3 Yrotation Xrotation Zrotation
       JOINT RightElbow
       {
        OFFSET -30.272209 0.000000 0.000000
        CHANNELS 3 Yrotation Xrotation Zrotation
        JOINT RightWrist
        {
         OFFSET -24.478199 0.000000 0.000000
         CHANNELS 3 Yrotation Xrotation Zrotation
         End Site
         {
          OFFSET -18.090752 0.000000 0.000000
         }
        }
       }
      }
     }
     JOINT LeftCollar
     {
      OFFSET 2.923010 9.499495 0.000000
      CHANNELS 3 Yrotation Xrotation Zrotation
      JOINT LeftShoulder
      {
       OFFSET 13.795216 0.000000 0.000000
       CHANNELS 3 Yrotation Xrotation Zrotation
       JOINT LeftElbow
       {
        OFFSET 30.272209 0.000000 0.000000
        CHANNELS 3 Yrotation Xrotation Zrotation
        JOINT LeftWrist
        {
         OFFSET 24.478199 0.000000 0.000000
         CHANNELS 3 Yrotation Xrotation Zrotation
         End Site
         {
          OFFSET 18.090752 0.000000 0.000000
         }
        }
       }
      }
     }
    }
   }
  }
 }
 JOINT RightHip
 {
  OFFSET -7.826875 0.019532 0.001973
  CHANNELS 3 Yrotation Xrotation Zrotation
  JOINT RightKnee
  {
   OFFSET 0.000000 -40.546152 -0.001885
   CHANNELS 3 Yrotation Xrotation Zrotation
   JOINT RightAnkle
   {
    OFFSET 0.000000 -39.417092 -0.003189
    CHANNELS 3 Yrotation Xrotation Zrotation
    JOINT RightToe
    {
     OFFSET 0.000000 -7.579396 17.243563
     CHANNELS 3 Yrotation Xrotation Zrotation
     End Site
     {
      OFFSET 0.000000 -1.500329 6.694466
     }
    }
   }
  }
 }
 JOINT LeftHip
 {
  OFFSET 7.826875 0.019532 0.001973
  CHANNELS 3 Yrotation Xrotation Zrotation
  JOINT LeftKnee
  {
   OFFSET 0.000000 -40.546152 -0.001885
   CHANNELS 3 Yrotation Xrotation Zrotation
   JOINT LeftAnkle
   {
    OFFSET 0.000000 -39.417092 -0.003189
    CHANNELS 3 Yrotation Xrotation Zrotation
    JOINT LeftToe
    {
     OFFSET 0.000000 -7.579396 17.243563
     CHANNELS 3 Yrotation Xrotation Zrotation
     End Site
     {
      OFFSET 0.000000 -1.500329 6.694466
     }
    }
   }
  }
 }
}
MOTION
Frames: 11
Frame Time: 0.008333
0.000000 87.345680 0.000000 0.000000 -5.767889 0.000000 0.000000 11.653876 0.000000 0.000000 -5.885988 0.000000 0.000000 -0.000000 0.000000 0.000000 -0.000000 0.000000 0.000000 12.528808 0.000000 0.000000 0.711711 0.000000 0.000000 -0.000000 0.000000 0.000000 -0.000000 0.000000 2.309063 -0.000000 0.000000 -2.309063 -0.000000 -0.000000 0.000000 -0.000000 0.000000 0.000000 0.000000 0.000000 -2.309063 0.000000 0.000000 2.309063 -0.000000 0.000000 0.000000 8.520374 0.000000 0.000000 1.905768 0.000000 -0.000000 -4.658254 0.000000 0.000000 -0.000000 0.000000 0.000000 8.520374 0.000000 0.000000 1.905768 0.000000 -0.000000 -4.658254 0.000000 0.000000 -0.000000 0.000000
4.412057 89.747366 13.365109 3.549982 -4.010290 0.728181 2.877650 4.444143 1.074690 0.090311 0.141157 0.027035 0.160059 0.250072 0.048053 2.772583 4.258936 0.919938 3.629490 14.878003 -1.004910 7.170076 -8.018118 -3.235730 -2.479363 -0.779331 -2.176839 0.737744 -1.212566 89.883312 0.872186 -12.970659 0.146769 0.372142 -16.389079 2.380619 -5.743751 -0.482423 -1.229085 0.566115 -4.783572 -91.546196 1.472476 0.557105 0.853649 0.343513 -3.019259 1.390633 -14.476714 7.312453 -3.043252 13.480151 1.092015 -1.232694 7.932618 -4.907520 -13.285319 0.030230 0.209719 0.027612 13.524520 7.302228 3.426463 1.133969 0.854658 0.268523 11.093522 -13.130423 1.263824 0.000994 -0.024135 -0.007237
4.403096 89.750001 13.345463 3.571667 -4.043205 0.726500 2.885455 4.457613 1.078950 0.090904 0.142238 0.027251 0.161095 0.251961 0.048433 2.780297 4.275044 0.923975 3.618421 14.884117 -1.004808 7.148977 -8.007472 -3.231023 -2.472839 -0.786477 -2.167463 0.774017 -1.245635 89.890942 0.877616 -12.925142 0.167348 0.323485 -16.366405 2.404804 -5.742633 -0.484451 -1.237097 0.570254 -4.803597 -91.535152 1.478667 0.546931 0.858665 0.338996 -3.026294 1.397125 -14.490960 7.327679 -3.039536 13.483780 1.105844 -1.233440 7.921207 -4.898363 -13.295310 0.029748 0.204896 0.028631 13.480184 7.315115 3.432630 1.149771 0.862622 0.264994 11.097164 -13.131447 1.273566 -0.000711 -0.029821 -0.009117
4.392675 89.753079 13.321601 3.593714 -4.073852 0.725530 2.892722 4.470451 1.082695 0.091456 0.143218 0.027458 0.162058 0.253673 0.048797 2.787625 4.289465 0.927933 3.609329 14.890995 -1.005734 7.131917 -7.995212 -3.228920 -2.467415 -0.792711 -2.157993 0.813291 -1.281705 89.904610 0.884638 -12.884525 0.184526 0.291768 -16.349320 2.417269 -5.740693 -0.487463 -1.246470 0.580626 -4.818726 -91.527762 1.481067 0.531182 0.858498 0.326135 -3.039861 1.404233 -14.505213 7.338004 -3.034269 13.486618 1.119525 -1.235305 7.912326 -4.886953 -13.305210 0.029468 0.200564 0.029571 13.437916 7.324196 3.437683 1.166844 0.868099 0.263982 11.092119 -13.129270 1.281124 -0.002413 -0.034485 -0.009621
4.381136 89.756490 13.294422 3.617340 -4.100197 0.724991 2.899033 4.480638 1.086272 0.091909 0.143981 0.027642 0.162848 0.255006 0.049121 2.793890 4.300435 0.931678 3.601696 14.899689 -1.007295 7.117718 -7.979449 -3.228425 -2.461309 -0.793573 -2.147249 0.853359 -1.320376 89.922136 0.894299 -12.850056 0.199613 0.278587 -16.335395 2.419327 -5.735523 -0.487415 -1.254344 0.595670 -4.831697 -91.527003 1.478295 0.514470 0.854167 0.313678 -3.059160 1.410792 -14.522507 7.342233 -3.027180 13.489598 1.132746 -1.239606 7.908575 -4.873858 -13.313323 0.028937 0.196635 0.029910 13.398362 7.329313 3.441702 1.180884 0.867881 0.263974 11.084122 -13.122633 1.286475 -0.003322 -0.038507 -0.008025
4.368912 89.760102 13.264696 3.642298 -4.119697 0.725252 2.903806 4.486660 1.088685 0.092202 0.144404 0.027786 0.163361 0.255743 0.049374 2.798436 4.306072 0.934939 3.595146 14.910691 -1.008472 7.105272 -7.959367 -3.227459 -2.455915 -0.786999 -2.135371 0.896062 -1.359057 89.943136 0.911043 -12.821944 0.213774 0.281136 -16.328700 2.412919 -5.725471 -0.482299 -1.257092 0.610462 -4.844359 -91.533243 1.469766 0.495743 0.843496 0.301209 -3.079052 1.416807 -14.541773 7.337929 -3.018708 13.493256 1.146151 -1.244328 7.906696 -4.859944 -13.320874 0.028038 0.193065 0.029814 13.361980 7.327432 3.443852 1.190081 0.863764 0.261942 11.080145 -13.112074 1.293211 -0.003366 -0.042514 -0.006054
4.356458 89.763816 13.233297 3.666973 -4.132138 0.727252 2.907731 4.489701 1.089569 0.092398 0.144586 0.027876 0.163703 0.256060 0.049533 2.802134 4.307931 0.937136 3.588852 14.922627 -1.009217 7.093091 -7.937567 -3.225719 -2.454708 -0.776300 -2.122237 0.942195 -1.398263 89.968613 0.935203 -12.799816 0.226850 0.294684 -16.328530 2.400675 -5.711588 -0.475731 -1.256470 0.621598 -4.856037 -91.543772 1.457331 0.477823 0.827495 0.284390 -3.099747 1.422640 -14.558842 7.324585 -3.010094 13.499186 1.161002 -1.247159 7.900391 -4.846270 -13.329843 0.026819 0.189914 0.029877 13.331477 7.316596 3.443778 1.196535 0.861224 0.257923 11.074803 -13.100234 1.302697 -0.002987 -0.047024 -0.005425
4.344170 89.767610 13.201596 3.692255 -4.142447 0.731690 2.911788 4.492462 1.089527 0.092604 0.144760 0.027911 0.164065 0.256362 0.049595 2.806170 4.309706 0.937736 3.582166 14.934050 -1.009824 7.080158 -7.916751 -3.223613 -2.458339 -0.764373 -2.108456 0.986901 -1.438452 90.000165 0.964143 -12.784622 0.237257 0.313470 -16.332298 2.386155 -5.699986 -0.470671 -1.254513 0.630700 -4.865032 -91.555738 1.439652 0.460732 0.808929 0.266026 -3.119342 1.427834 -14.574451 7.307263 -3.003663 13.509084 1.178379 -1.248859 7.888827 -4.834388 -13.338665 0.025192 0.187352 0.029379 13.305440 7.302637 3.442887 1.201255 0.860850 0.252119 11.063002 -13.088156 1.312860 -0.002539 -0.052408 -0.004916
4.331848 89.771486 13.170957 3.718002 -4.157015 0.736205 2.916622 4.496600 1.089863 0.092890 0.145064 0.027941 0.164567 0.256892 0.049648 2.811359 4.313417 0.937876 3.574873 14.944429 -1.009691 7.065878 -7.897959 -3.219972 -2.465592 -0.751325 -2.093732 1.025994 -1.476562 90.037098 0.997387 -12.778372 0.246814 0.333482 -16.338190 2.370858 -5.692641 -0.465621 -1.248918 0.636741 -4.869559 -91.569768 1.414427 0.441904 0.787768 0.249004 -3.132356 1.432668 -14.592353 7.293548 -3.000630 13.521981 1.197249 -1.247898 7.878517 -4.823807 -13.346576 0.023661 0.184705 0.027317 13.280860 7.293753 3.443421 1.203279 0.859232 0.245024 11.054640 -13.075228 1.323880 -0.001858 -0.058363 -0.004651
4.319357 89.775373 13.141549 3.743886 -4.176115 0.739529 2.921651 4.501359 1.091181 0.093212 0.145437 0.027986 0.165131 0.257542 0.049726 2.816965 4.318147 0.938314 3.567316 14.953717 -1.008805 7.050888 -7.881259 -3.214901 -2.476462 -0.735256 -2.076926 1.059195 -1.511333 90.077128 1.036280 -12.777752 0.258749 0.353628 -16.344080 2.356234 -5.687095 -0.457530 -1.242435 0.638379 -4.869888 -91.582888 1.382872 0.425847 0.762391 0.233614 -3.140043 1.437191 -14.618697 7.284026 -3.001039 13.536742 1.216704 -1.243417 7.876471 -4.813746 -13.354168 0.022943 0.181478 0.024089 13.256336 7.288797 3.444205 1.204306 0.858402 0.238717 11.055216 -13.062174 1.336990 -0.000596 -0.064719 -0.006079
4.307045 89.779110 13.112108 3.772261 -4.192112 0.743641 2.925263 4.503970 1.092040 0.093439 0.145663 0.027996 0.165529 0.257936 0.049742 2.821162 4.320846 0.938028 3.559997 14.961469 -1.007905 7.036426 -7.867392 -3.209997 -2.488960 -0.716381 -2.059522 1.085579 -1.544595 90.120327 1.079711 -12.780316 0.273410 0.371959 -16.349456 2.346776 -5.683756 -0.446713 -1.238961 0.638339 -4.867725 -91.591471 1.347546 0.416413 0.732373 0.221018 -3.145253 1.441033 -14.658165 7.270355 -3.003695 13.552097 1.236894 -1.237856 7.883335 -4.804873 -13.361631 0.022852 0.178440 0.021036 13.229178 7.278441 3.442383 1.203546 0.862358 0.236225 11.052646 -13.049585 1.347969 0.000649 -0.071716 -0.007474
